<mxfile host="app.diagrams.net" modified="2021-07-24T05:58:31.155Z" agent="5.0 (Macintosh; Intel Mac OS X 10_15_7) AppleWebKit/537.36 (KHTML, like Gecko) Chrome/91.0.4472.114 Safari/537.36" etag="KlhsNaanGfTBGlIuTe7i" version="14.9.2" type="github">
  <diagram id="6OxUyXnarH1mJg6vfp_b" name="Page-1">
    <mxGraphModel dx="1426" dy="826" grid="1" gridSize="10" guides="1" tooltips="1" connect="1" arrows="1" fold="1" page="1" pageScale="1" pageWidth="827" pageHeight="1169" math="0" shadow="0">
      <root>
        <mxCell id="0" />
        <mxCell id="1" parent="0" />
        <mxCell id="tanTmlRFgSFP3X2OnWR8-56" style="edgeStyle=orthogonalEdgeStyle;rounded=0;orthogonalLoop=1;jettySize=auto;html=1;exitX=0.88;exitY=0.25;exitDx=0;exitDy=0;exitPerimeter=0;" edge="1" parent="1" source="tanTmlRFgSFP3X2OnWR8-32">
          <mxGeometry relative="1" as="geometry">
            <mxPoint x="750" y="690" as="targetPoint" />
          </mxGeometry>
        </mxCell>
        <mxCell id="tanTmlRFgSFP3X2OnWR8-64" style="edgeStyle=none;rounded=0;orthogonalLoop=1;jettySize=auto;html=1;exitX=0.13;exitY=0.77;exitDx=0;exitDy=0;exitPerimeter=0;entryX=1;entryY=0.867;entryDx=0;entryDy=0;entryPerimeter=0;" edge="1" parent="1" source="tanTmlRFgSFP3X2OnWR8-32" target="tanTmlRFgSFP3X2OnWR8-34">
          <mxGeometry relative="1" as="geometry" />
        </mxCell>
        <mxCell id="tanTmlRFgSFP3X2OnWR8-32" value="协作服务器" style="ellipse;shape=cloud;whiteSpace=wrap;html=1;" vertex="1" parent="1">
          <mxGeometry x="400" y="670" width="120" height="80" as="geometry" />
        </mxCell>
        <mxCell id="tanTmlRFgSFP3X2OnWR8-50" style="edgeStyle=orthogonalEdgeStyle;rounded=0;orthogonalLoop=1;jettySize=auto;html=1;" edge="1" parent="1" source="tanTmlRFgSFP3X2OnWR8-33">
          <mxGeometry relative="1" as="geometry">
            <mxPoint x="530" y="710" as="targetPoint" />
          </mxGeometry>
        </mxCell>
        <mxCell id="tanTmlRFgSFP3X2OnWR8-33" value="正常用户2" style="shape=umlActor;verticalLabelPosition=bottom;verticalAlign=top;html=1;outlineConnect=0;" vertex="1" parent="1">
          <mxGeometry x="760" y="680" width="30" height="60" as="geometry" />
        </mxCell>
        <mxCell id="tanTmlRFgSFP3X2OnWR8-34" value="离线用户1" style="shape=umlActor;verticalLabelPosition=bottom;verticalAlign=top;html=1;outlineConnect=0;" vertex="1" parent="1">
          <mxGeometry x="80" y="680" width="30" height="60" as="geometry" />
        </mxCell>
        <mxCell id="tanTmlRFgSFP3X2OnWR8-57" style="edgeStyle=orthogonalEdgeStyle;rounded=0;orthogonalLoop=1;jettySize=auto;html=1;entryX=0.414;entryY=1.2;entryDx=0;entryDy=0;exitX=0.5;exitY=0;exitDx=0;exitDy=0;curved=1;entryPerimeter=0;" edge="1" parent="1" source="tanTmlRFgSFP3X2OnWR8-35" target="tanTmlRFgSFP3X2OnWR8-63">
          <mxGeometry relative="1" as="geometry">
            <mxPoint x="225" y="730" as="targetPoint" />
            <Array as="points">
              <mxPoint x="90" y="760" />
              <mxPoint x="289" y="760" />
            </Array>
          </mxGeometry>
        </mxCell>
        <mxCell id="tanTmlRFgSFP3X2OnWR8-69" style="edgeStyle=orthogonalEdgeStyle;rounded=0;orthogonalLoop=1;jettySize=auto;html=1;exitX=0.5;exitY=0;exitDx=0;exitDy=0;entryX=0.5;entryY=1;entryDx=0;entryDy=0;curved=1;" edge="1" parent="1" source="tanTmlRFgSFP3X2OnWR8-35" target="tanTmlRFgSFP3X2OnWR8-68">
          <mxGeometry relative="1" as="geometry" />
        </mxCell>
        <mxCell id="tanTmlRFgSFP3X2OnWR8-35" value="离线消息1" style="rounded=0;whiteSpace=wrap;html=1;" vertex="1" parent="1">
          <mxGeometry x="60" y="820" width="60" height="20" as="geometry" />
        </mxCell>
        <mxCell id="tanTmlRFgSFP3X2OnWR8-36" value="离线消息2" style="rounded=0;whiteSpace=wrap;html=1;" vertex="1" parent="1">
          <mxGeometry x="60" y="840" width="60" height="20" as="geometry" />
        </mxCell>
        <mxCell id="tanTmlRFgSFP3X2OnWR8-37" value="离线消息3" style="rounded=0;whiteSpace=wrap;html=1;" vertex="1" parent="1">
          <mxGeometry x="60" y="860" width="60" height="20" as="geometry" />
        </mxCell>
        <mxCell id="tanTmlRFgSFP3X2OnWR8-38" value="离线消息4" style="rounded=0;whiteSpace=wrap;html=1;" vertex="1" parent="1">
          <mxGeometry x="60" y="880" width="60" height="20" as="geometry" />
        </mxCell>
        <mxCell id="tanTmlRFgSFP3X2OnWR8-40" value="待消费消息1" style="rounded=0;whiteSpace=wrap;html=1;" vertex="1" parent="1">
          <mxGeometry x="600" y="590" width="70" height="20" as="geometry" />
        </mxCell>
        <mxCell id="tanTmlRFgSFP3X2OnWR8-41" value="待消费消息2" style="rounded=0;whiteSpace=wrap;html=1;" vertex="1" parent="1">
          <mxGeometry x="600" y="610" width="70" height="20" as="geometry" />
        </mxCell>
        <mxCell id="tanTmlRFgSFP3X2OnWR8-44" value="待消费消息3" style="rounded=0;whiteSpace=wrap;html=1;" vertex="1" parent="1">
          <mxGeometry x="600" y="630" width="70" height="20" as="geometry" />
        </mxCell>
        <mxCell id="tanTmlRFgSFP3X2OnWR8-45" value="待消费消息4" style="rounded=0;whiteSpace=wrap;html=1;" vertex="1" parent="1">
          <mxGeometry x="600" y="650" width="70" height="20" as="geometry" />
        </mxCell>
        <mxCell id="tanTmlRFgSFP3X2OnWR8-58" style="rounded=0;orthogonalLoop=1;jettySize=auto;html=1;entryX=0.07;entryY=0.4;entryDx=0;entryDy=0;entryPerimeter=0;exitX=1;exitY=0.367;exitDx=0;exitDy=0;exitPerimeter=0;" edge="1" parent="1" source="tanTmlRFgSFP3X2OnWR8-34" target="tanTmlRFgSFP3X2OnWR8-32">
          <mxGeometry relative="1" as="geometry">
            <mxPoint x="260" y="700.3816793893129" as="sourcePoint" />
          </mxGeometry>
        </mxCell>
        <mxCell id="tanTmlRFgSFP3X2OnWR8-51" value="待发送消息1" style="rounded=0;whiteSpace=wrap;html=1;" vertex="1" parent="1">
          <mxGeometry x="600" y="720" width="70" height="20" as="geometry" />
        </mxCell>
        <mxCell id="tanTmlRFgSFP3X2OnWR8-52" value="待发送消息2" style="rounded=0;whiteSpace=wrap;html=1;" vertex="1" parent="1">
          <mxGeometry x="600" y="740" width="70" height="20" as="geometry" />
        </mxCell>
        <mxCell id="tanTmlRFgSFP3X2OnWR8-53" value="待发送消息3" style="rounded=0;whiteSpace=wrap;html=1;" vertex="1" parent="1">
          <mxGeometry x="600" y="760" width="70" height="20" as="geometry" />
        </mxCell>
        <mxCell id="tanTmlRFgSFP3X2OnWR8-54" value="待发送消息4" style="rounded=0;whiteSpace=wrap;html=1;" vertex="1" parent="1">
          <mxGeometry x="600" y="780" width="70" height="20" as="geometry" />
        </mxCell>
        <mxCell id="tanTmlRFgSFP3X2OnWR8-60" value="待发送消息1" style="rounded=0;whiteSpace=wrap;html=1;" vertex="1" parent="1">
          <mxGeometry x="260" y="560" width="70" height="20" as="geometry" />
        </mxCell>
        <mxCell id="tanTmlRFgSFP3X2OnWR8-61" value="待发送消息2" style="rounded=0;whiteSpace=wrap;html=1;" vertex="1" parent="1">
          <mxGeometry x="260" y="580" width="70" height="20" as="geometry" />
        </mxCell>
        <mxCell id="tanTmlRFgSFP3X2OnWR8-62" value="待发送消息3" style="rounded=0;whiteSpace=wrap;html=1;" vertex="1" parent="1">
          <mxGeometry x="260" y="600" width="70" height="20" as="geometry" />
        </mxCell>
        <mxCell id="tanTmlRFgSFP3X2OnWR8-63" value="待发送消息4" style="rounded=0;whiteSpace=wrap;html=1;" vertex="1" parent="1">
          <mxGeometry x="260" y="620" width="70" height="20" as="geometry" />
        </mxCell>
        <mxCell id="tanTmlRFgSFP3X2OnWR8-65" value="待消费消息1" style="rounded=0;whiteSpace=wrap;html=1;" vertex="1" parent="1">
          <mxGeometry x="270" y="750" width="70" height="20" as="geometry" />
        </mxCell>
        <mxCell id="tanTmlRFgSFP3X2OnWR8-66" value="待消费消息2" style="rounded=0;whiteSpace=wrap;html=1;" vertex="1" parent="1">
          <mxGeometry x="270" y="770" width="70" height="20" as="geometry" />
        </mxCell>
        <mxCell id="tanTmlRFgSFP3X2OnWR8-67" value="待消费消息3" style="rounded=0;whiteSpace=wrap;html=1;" vertex="1" parent="1">
          <mxGeometry x="270" y="790" width="70" height="20" as="geometry" />
        </mxCell>
        <mxCell id="tanTmlRFgSFP3X2OnWR8-68" value="待消费消息4" style="rounded=0;whiteSpace=wrap;html=1;" vertex="1" parent="1">
          <mxGeometry x="270" y="810" width="70" height="20" as="geometry" />
        </mxCell>
      </root>
    </mxGraphModel>
  </diagram>
</mxfile>
